<?xml version="1.0" encoding="utf-8"?>
<svg id="master-artboard" viewBox="0 0 899.0963745117188 349.322265625" xmlns="http://www.w3.org/2000/svg" width="899.0963745117188px" height="349.322265625px" version="1.1" style="shape-rendering:geometricPrecision; text-rendering:geometricPrecision; image-rendering:optimizeQuality; fill-rule:evenodd; clip-rule:evenodd"><defs><path id="text-path-0" d="M 222.5625 381.61456298828125 A 100 24 0 0 1 695.125 381.61456298828125 A 100 24 0 0 1 222.5625 381.61456298828125 Z" style="fill: none; stroke: red; stroke-width: 2;"/></defs><rect id="ee-background" x="0" y="0" width="899.0963745117188" height="349.322265625" style="fill: white; fill-opacity: 1; pointer-events: none;"/>
 
 <metadata id="CorelCorpID_0Corel-Layer"/><path d="M 11853 1720 L 11853 1841 L 7251 1841 L 7251 1720 Z" class="fil1" style="fill: rgb(255, 240, 0);" transform="matrix(0.12255483120679855, 0, 0, 0.12255483120679855, -263.9961624145508, -28.605804443359375)"/><path class="fil9" d="M6470 1687c0,0 224,-559 383,-691 159,-131 318,-230 318,-230 0,0 186,170 247,208 60,39 147,126 147,126 0,0 -242,222 -474,317 -232,94 496,-196 611,-256 115,-61 302,-230 302,-230l208 213c0,0 -690,356 -975,466 -285,109 -725,282 -725,282l-42 -205z" style="fill: rgb(93, 185, 236);" transform="matrix(0.12255483120679855, 0, 0, 0.12255483120679855, -263.9961624145508, -28.605804443359375)"/><path class="fil5" d="M5293 2042c0,0 -680,-355 -859,-566 -180,-210 -329,-350 -329,-350 0,0 -666,52 -947,241 -280,188 -346,329 -346,329l276 201 114 31c0,0 -214,57 -250,57 -35,0 -166,0 -166,0l1 26c0,0 490,0 845,-32 355,-33 534,-70 534,-70 0,0 212,199 265,237 54,38 95,58 95,58 0,0 -528,-118 -702,-118 -175,0 -481,-61 -481,-61l-95 288c0,0 761,-57 1019,-83 259,-26 593,169 593,169 0,0 252,36 304,18 52,-19 129,-375 129,-375z" style="fill: rgb(97, 185, 106);" transform="matrix(0.12255483120679855, 0, 0, 0.12255483120679855, -263.9961624145508, -28.605804443359375)"/><path class="fil10" d="M5750 2111c0,0 -130,-651 -164,-836 -34,-186 -47,-282 -47,-282 0,0 129,-63 202,-68 73,-4 171,-17 171,-17 0,0 83,138 100,183 16,45 32,88 32,88 0,0 21,-218 29,-272 8,-53 2,-197 2,-197l75 -17c0,0 23,300 23,431 0,130 0,245 0,245 0,0 118,-294 171,-445 53,-151 98,-359 98,-359l608 49c0,0 -220,330 -326,514 -106,184 -159,261 -159,261 0,0 -103,411 -40,502 62,91 -256,188 -256,188l-519 32z" style="fill: rgb(186, 60, 18);" transform="matrix(0.12255483120679855, 0, 0, 0.12255483120679855, -263.9961624145508, -28.605804443359375)"/><path class="fil8" d="M5852 2405c0,0 -73,-420 -185,-803 -111,-383 -133,-660 -133,-660l-69 -3c0,0 76,385 110,492 34,108 34,113 34,113 0,0 -134,-289 -161,-362 -27,-74 -57,-152 -57,-152 0,0 -484,176 -548,210 -64,35 -176,128 -176,128 0,0 142,382 200,514 59,132 255,421 255,421 0,0 -73,-24 -206,-137 -132,-113 -259,-284 -259,-284l-235 142c0,0 348,384 593,444 244,60 466,118 466,118l371 -181z" style="fill: rgb(173, 66, 155);" transform="matrix(0.12255483120679855, 0, 0, 0.12255483120679855, -263.9961624145508, -28.605804443359375)"/><path class="fil8" d="M6460 1951c0,0 159,-57 233,-81 73,-25 77,-27 77,-27 0,0 -89,74 -173,133 -84,59 -106,51 -106,51l-31 -76z" style="fill: rgb(173, 66, 155);" transform="matrix(0.12255483120679855, 0, 0, 0.12255483120679855, -263.9961624145508, -28.605804443359375)"/><path class="fil20" d="M6649 2396c0,-1 -118,-306 -145,-567 -14,-138 78,-158 206,-186 117,-26 266,-58 386,-198 -9,-6 -15,-11 -15,-11l20 -34 40 11c0,0 -7,55 -16,52 -4,-1 -12,-6 -20,-11 -123,143 -273,176 -393,202 -122,27 -210,47 -197,174 28,259 145,563 145,564l-11 4z" style="fill: rgb(47, 17, 45); fill-rule: nonzero;" transform="matrix(0.12255483120679855, 0, 0, 0.12255483120679855, -263.9961624145508, -28.605804443359375)"/><path class="fil1" d="M6846 1967c0,0 132,-95 633,-201 500,-107 629,-245 629,-245l256 385c0,0 -80,109 -199,158 -118,48 -404,138 -404,138 0,0 270,-61 398,-100 128,-38 151,-51 151,-51l19 38c0,0 -266,167 -745,135 -478,-32 -635,-116 -635,-116l-41 -55c54,-46 137,-97 137,-97 0,0 -31,5 -86,26 -26,9 -54,23 -77,35l-36 -50zm-40 10c0,0 17,41 21,46 4,5 -30,18 -57,23 -27,5 -62,-73 -62,-73l98 4z" style="fill: rgb(255, 240, 0);" transform="matrix(0.12255483120679855, 0, 0, 0.12255483120679855, -263.9961624145508, -28.605804443359375)"/><path class="fil4" d="M5678 1998c0,0 49,-29 70,-44 21,-15 -28,-116 -42,-135 -15,-19 -42,-46 -42,-46 0,0 -1,174 14,225z" style="fill: rgb(87, 164, 220);" transform="matrix(0.12255483120679855, 0, 0, 0.12255483120679855, -263.9961624145508, -28.605804443359375)"/><path class="fil8" d="M4458 1916c0,0 133,-42 171,-60 38,-18 -103,-145 -103,-145l-115 100 47 105z" style="fill: rgb(173, 66, 155);" transform="matrix(0.12255483120679855, 0, 0, 0.12255483120679855, -263.9961624145508, -28.605804443359375)"/><path class="fil17" d="M5620 1690c-28,-26 -108,-205 -121,-224 -12,-18 -176,50 -176,50 0,0 152,98 172,113 21,14 125,61 125,61z" style="fill: rgb(245, 99, 118);" transform="matrix(0.12255483120679855, 0, 0, 0.12255483120679855, -263.9961624145508, -28.605804443359375)"/><path class="fil1" d="M4980 2249c0,0 -190,36 -515,39 -325,2 -882,32 -882,32l-91 385c0,0 396,-88 770,-160 374,-72 728,-174 728,-174l-10 -122z" style="fill: rgb(255, 240, 0);" transform="matrix(0.12255483120679855, 0, 0, 0.12255483120679855, -263.9961624145508, -28.605804443359375)"/><path class="fil1" d="M5049 2348l25 -68c0,0 74,-3 100,5 26,9 18,42 18,42l-143 21z" style="fill: rgb(255, 240, 0);" transform="matrix(0.12255483120679855, 0, 0, 0.12255483120679855, -263.9961624145508, -28.605804443359375)"/><path class="fil11" d="M7264 1716c0,0 431,-36 730,-173 299,-137 402,-223 402,-223l127 159 -25 67c0,0 81,4 108,-8 27,-12 81,-24 81,-24l20 36c0,0 -632,130 -921,187 -289,56 -448,80 -448,80l-74 -101z" style="fill: rgb(247, 147, 62);" transform="matrix(0.12255483120679855, 0, 0, 0.12255483120679855, -263.9961624145508, -28.605804443359375)"/><path class="fil13" d="M6348 1598c0,0 94,-205 191,-344 98,-139 156,-175 156,-175l294 153c0,0 -183,109 -266,187 -84,77 -328,171 -328,171l-47 8z" style="fill: rgb(254, 254, 254);" transform="matrix(0.12255483120679855, 0, 0, 0.12255483120679855, -263.9961624145508, -28.605804443359375)"/><path class="fil13" d="M4872 2366c-24,-39 -343,-152 -380,-185 -36,-33 -153,147 -153,147 0,0 360,66 414,64 53,-2 119,-26 119,-26z" style="fill: rgb(254, 254, 254);" transform="matrix(0.12255483120679855, 0, 0, 0.12255483120679855, -263.9961624145508, -28.605804443359375)"/><path class="fil12" d="M5340 2150c0,0 43,-47 70,-64 27,-17 -127,-181 -127,-181 0,0 -25,64 -25,74 0,9 82,171 82,171z" style="fill: rgb(47, 17, 45);" transform="matrix(0.12255483120679855, 0, 0, 0.12255483120679855, -263.9961624145508, -28.605804443359375)"/><path class="fil8" d="M4148 2829c-174,8 -630,44 -918,224 -361,226 -717,281 -717,281l10 70c0,0 206,-83 333,-144 128,-62 223,-79 223,-79 0,0 -261,87 -339,161 -78,73 -98,-40 -29,120 68,159 196,200 196,200 0,0 227,-115 335,-178 108,-64 328,-306 328,-306 0,0 -178,279 -240,338 -61,58 -139,85 -139,85l58 69c0,0 311,-233 449,-390 137,-156 542,-140 542,-140l6 -144c0,0 -223,-19 -299,-12 -76,7 -124,5 -124,5 0,0 262,-98 301,-98 7,0 15,0 23,-1l1 -61z" style="fill: rgb(173, 66, 155);" transform="matrix(0.12255483120679855, 0, 0, 0.12255483120679855, 58.6197509765625, -163.2312469482422)"/><path class="fil8" d="M4295 3010c0,0 2,103 5,117 3,13 62,30 89,14 26,-16 59,-166 59,-166l-153 35z" style="fill: rgb(173, 66, 155);" transform="matrix(0.12255483120679855, 0, 0, 0.12255483120679855, 42.852813720703125, -195.97796630859375)"/><path class="fil0" d="M6918 2213c0,0 18,-41 259,-97 240,-56 422,-184 422,-184 0,0 121,163 152,184 32,21 -612,71 -833,97z" style="fill: white;" transform="matrix(0.12255483120679855, 0, 0, 0.12255483120679855, -263.9961624145508, -28.605804443359375)"/><path class="fil20" d="M6915 2153c1,0 295,-182 399,-207 29,-7 78,-5 139,-2 160,7 409,19 605,-126 273,-201 386,-263 387,-264l2 -1 3 1c0,0 223,93 292,128 1,-3 2,-6 2,-6l33 9c0,0 -18,25 -26,23 -9,-2 -20,-8 -16,-11 1,-1 1,-2 2,-4 -63,-33 -264,-117 -289,-127 -18,10 -133,77 -383,261 -200,148 -451,136 -613,128 -60,-3 -107,-5 -135,2 -102,25 -395,206 -396,206l-6 -10z" style="fill: rgb(47, 17, 45); fill-rule: nonzero;" transform="matrix(0.12255483120679855, 0, 0, 0.12255483120679855, -263.9961624145508, -28.605804443359375)"/><path class="fil20" d="M4251 2681c0,-1 -118,-115 -342,-210 -161,-68 -280,-78 -482,-93 -79,-7 -170,-14 -282,-26 -346,-38 -483,-255 -514,-314l-13 7c0,0 -7,-33 -4,-41 3,-8 12,-21 12,-21l25 44 -10 5c29,56 163,271 505,309 111,12 203,19 282,25 203,16 323,25 485,95 226,96 346,211 346,211l-8 9z" style="fill: rgb(47, 17, 45); fill-rule: nonzero;" transform="matrix(0.12255483120679855, 0, 0, 0.12255483120679855, -263.9961624145508, -28.605804443359375)"/><path class="fil0" d="M5035 1689c0,39 81,199 69,221 -13,21 -150,-103 -150,-103l81 -118z" style="fill: white;" transform="matrix(0.12255483120679855, 0, 0, 0.12255483120679855, -263.9961624145508, -28.605804443359375)"/><path class="fil9" d="M3360 2786l2 89c0,0 -96,26 -117,17 -20,-8 -67,-145 -67,-145l182 39z" style="fill: rgb(93, 185, 236);" transform="matrix(0.12255483120679855, 0, 0, 0.12255483120679855, -263.9961624145508, -28.605804443359375)"/><path class="fil8" d="M4641 1279c0,0 96,-47 135,-73 39,-26 -70,-226 -70,-226 0,0 -56,87 -69,117 -13,30 4,182 4,182z" style="fill: rgb(173, 66, 155);" transform="matrix(0.12255483120679855, 0, 0, 0.12255483120679855, -263.9961624145508, -28.605804443359375)"/><path class="fil9" d="M7233 724c20,14 63,67 75,67 11,0 110,-53 108,-72 -1,-18 -46,-117 -46,-117l-137 122z" style="fill: rgb(93, 185, 236);" transform="matrix(0.12255483120679855, 0, 0, 0.12255483120679855, -263.9961624145508, -28.605804443359375)"/><path class="fil5" d="M2878 1495c-32,37 -90,104 -90,104 0,0 -46,-9 -87,-29 -40,-20 -17,-159 -17,-159l194 84z" style="fill: rgb(97, 185, 106);" transform="matrix(0.12255483120679855, 0, 0, 0.12255483120679855, -263.9961624145508, -28.605804443359375)"/><path class="fil11" d="M8490 2159l9 73c0,0 360,-21 441,-58 81,-36 100,-63 100,-63l-13 -16 -537 64z" style="fill: rgb(247, 147, 62);" transform="matrix(0.12255483120679855, 0, 0, 0.12255483120679855, -334.3409881591797, -45.58559036254883)"/><path class="fil24" d="M6037 1176c1,-1 171,-342 -193,-588 -60,-41 -109,-78 -151,-108 -204,-152 -213,-159 -579,85 -412,275 -751,111 -802,84 -22,41 -138,268 -122,359 9,-2 17,-4 18,-4 3,0 2,23 5,37 3,15 -28,20 -28,20l-30 -43c0,0 10,-3 21,-6 -18,-109 126,-376 126,-377l4 -7 6 4c1,1 354,213 794,-79 374,-250 384,-243 596,-85 41,30 90,66 151,107 374,254 198,606 198,607l-14 -6z" style="fill: rgb(186, 60, 18); fill-rule: nonzero;" transform="matrix(0.12255483120679855, 0, 0, 0.12255483120679855, -263.9961624145508, -28.605804443359375)"/><path class="fil25" d="M7283 1227c0,0 196,37 470,-274 45,-52 78,-92 102,-122 42,-53 60,-76 82,-72 16,2 30,18 55,45 40,45 110,123 258,224 102,69 174,102 222,116 21,-9 39,-13 52,-13 22,0 34,9 34,18 0,9 -11,19 -36,18 -12,0 -28,-2 -49,-8 -29,14 -66,39 -109,83 -214,220 -453,181 -507,169 -1,1 -1,2 -2,3 -6,8 -42,-5 -44,-7 -1,-2 7,-28 7,-28l48 10c0,0 -1,4 -3,8 58,13 285,46 490,-165 38,-39 71,-64 100,-79 -50,-16 -119,-50 -211,-113 -150,-101 -221,-180 -261,-226 -23,-25 -36,-39 -46,-41 -14,-2 -30,19 -69,67 -24,30 -56,71 -102,123 -279,318 -483,279 -484,279l3 -15zm1216 -77c9,2 16,2 23,2 14,1 21,-1 21,-3 0,-1 -7,-3 -19,-3 -7,0 -15,1 -25,4z" style="fill: rgb(93, 185, 236); fill-rule: nonzero;" transform="matrix(0.12255483120679855, 0, 0, 0.12255483120679855, -263.9961624145508, -28.605804443359375)"/><path class="fil26" d="M3462 1967c-1,1 -477,184 -739,185 -82,0 -128,-17 -155,-28 -15,-5 -24,-8 -27,-5 -5,7 -9,28 -15,73 -7,48 -18,121 -40,231 -19,96 -50,149 -80,176 57,23 141,69 261,152 536,368 729,-75 763,-173 -4,-2 -7,-4 -7,-4l8 -44 40 15c0,0 -11,43 -19,42 -2,0 -5,-1 -8,-3 -37,104 -236,556 -785,179 -126,-86 -211,-132 -266,-153 -6,4 -12,7 -18,9 -32,13 -59,3 -70,-9 -15,-17 -10,-37 33,-31 13,2 30,6 52,14 30,-23 61,-74 82,-173 22,-109 32,-182 39,-230 7,-48 10,-71 19,-81 10,-11 21,-7 43,1 26,10 71,27 150,27 259,-1 733,-183 734,-183l5 13zm-1093 639l6 -3c-16,-5 -29,-8 -38,-9 -19,-3 -25,2 -21,6 8,9 29,16 53,6z" style="fill: rgb(97, 185, 106); fill-rule: nonzero;" transform="matrix(0.12255483120679855, 0, 0, 0.12255483120679855, -263.9961624145508, -28.605804443359375)"/><path d="M 1463 2030 H 1596 V 2163 H 1463 V 2030 Z" class="fil5" style="fill: rgb(97, 185, 106);" transform="matrix(0.12255483120679855, 0, 0, 0.12255483120679855, -151.20187377929688, -71.05526733398438)"/>
<path class="fil13" d="M5317 3625c52,-231 47,-153 161,-320l146 92c0,0 -247,190 -307,228z" style="fill: rgb(254, 254, 254);" transform="matrix(0.12255483120679855, 0, 0, 0.12255483120679855, -83.28274536132812, -194.76512145996094)"/><path class="fil8" d="M4899 3528c0,0 33,17 45,24 12,7 83,-16 140,-21 58,-6 137,9 137,9 0,0 -43,-69 -49,-78 -6,-9 -27,-14 -27,-14l-111 36 0 20 -32 -9 -103 33zm391 15l71 -50c0,0 17,39 29,66 11,27 13,79 13,79l-9 3c0,0 -82,-86 -104,-98z" style="fill: rgb(173, 66, 155);" transform="matrix(0.12255483120679855, 0, 0, 0.12255483120679855, -83.28274536132812, -194.76512145996094)"/><path d="M 271.0274353027344 312.6363525390625 C 274.76116943359375 322.1570739746094 274.9107666015625 330.5090026855469 271.4762268066406 337.692138671875 C 268.04412841796875 344.8814697265625 261.2108459472656 350.48297119140625 250.97637939453125 354.4966125488281 L 234.60995483398438 360.9150390625 L 211.93370056152344 303.0925598144531 L 230.07827758789062 295.976806640625 C 239.518310546875 292.2746887207031 247.8253936767578 291.8920593261719 254.99951171875 294.828857421875 C 262.1798400878906 297.7632141113281 267.5224914550781 303.6990661621094 271.0274353027344 312.6363525390625 M 258.4158935546875 317.94744873046875 C 253.5454864501953 305.5283203125 245.623779296875 301.47039794921875 234.6507568359375 305.773681640625 L 228.13397216796875 308.3293762207031 L 242.89854431152344 345.9777526855469 L 248.1585235595703 343.9149475097656 C 259.96942138671875 339.2830810546875 263.3885498046875 330.6272277832031 258.4158935546875 317.94744873046875 ZM 312.0160217285156 297.36236572265625 C 309.3052673339844 297.8447265625 307.3382568359375 299.081787109375 306.11492919921875 301.0735778808594 C 304.8838806152344 303.0599365234375 304.43707275390625 305.64825439453125 304.7745056152344 308.8384704589844 L 322.67333984375 305.653564453125 C 322.06024169921875 302.5124206542969 320.8070983886719 300.2265930175781 318.91387939453125 298.796142578125 C 317.0195007324219 297.359130859375 314.72021484375 296.8811950683594 312.0160217285156 297.36236572265625 M 320.81884765625 336.44464111328125 C 313.2904357910156 337.78424072265625 307.03985595703125 336.7532958984375 302.0670471191406 333.35186767578125 C 297.08770751953125 329.95159912109375 293.9206237792969 324.4446105957031 292.56585693359375 316.83087158203125 C 291.17254638671875 309.0005187988281 292.05438232421875 302.5970153808594 295.2113342285156 297.6203308105469 C 298.3671569824219 292.6370849609375 303.4007568359375 289.5305480957031 310.31219482421875 288.30072021484375 C 316.9217224121094 287.1246337890625 322.4027404785156 288.0927429199219 326.7552795410156 291.2050476074219 C 331.10009765625 294.3119201660156 333.8628845214844 299.1832580566406 335.04364013671875 305.81903076171875 L 336.14556884765625 312.0117492675781 L 305.9892578125 317.3777160644531 C 306.7783203125 320.9751281738281 308.35870361328125 323.6157531738281 310.7303771972656 325.2996520996094 C 313.0943298339844 326.9781494140625 316.09112548828125 327.4944763183594 319.72076416015625 326.8486022949219 C 322.53656005859375 326.3475646972656 325.1455078125 325.57861328125 327.5476989746094 324.541748046875 C 329.9510192871094 323.511474609375 332.4073181152344 322.11285400390625 334.9165954589844 320.345947265625 L 336.6719665527344 330.2109680175781 C 334.6388854980469 331.723876953125 332.4007873535156 332.97869873046875 329.9576110839844 333.9754638671875 C 327.5210266113281 334.9710388183594 324.4747619628906 335.7940979003906 320.81884765625 336.44464111328125 ZM 366.60162353515625 329.37908935546875 L 344.16748046875 283.7762451171875 L 357.65887451171875 282.51727294921875 L 369.3133850097656 308.6072692871094 C 370.6473693847656 311.9243469238281 371.5823059082031 315.0911865234375 372.11822509765625 318.1077575683594 L 372.3671569824219 318.08453369140625 C 372.2610778808594 315.36932373046875 372.5972900390625 312.0838623046875 373.375732421875 308.22821044921875 L 379.9519958496094 280.43695068359375 L 393.4433898925781 279.177978515625 L 379.8341369628906 328.144287109375 L 366.60162353515625 329.37908935546875 ZM 461.8328857421875 324.5813903808594 L 448.706298828125 324.8818054199219 L 448.0928649902344 298.0788269042969 L 423.5093078613281 298.6414794921875 L 424.12274169921875 325.4444580078125 L 410.9562072753906 325.7458190917969 L 409.5350341796875 263.6520690917969 L 422.70159912109375 263.3507385253906 L 423.2585144042969 287.6843566894531 L 447.84210205078125 287.1217041015625 L 447.28515625 262.7880859375 L 460.4117126464844 262.4876403808594 L 461.8328857421875 324.5813903808594 ZM 492.5815734863281 301.594482421875 C 492.3755187988281 306.28997802734375 492.989013671875 309.8736267089844 494.4220275878906 312.34552001953125 C 495.8616943359375 314.8176574707031 498.32318115234375 316.1301574707031 501.8065185546875 316.28302001953125 C 505.25653076171875 316.4344177246094 507.7899169921875 315.3477478027344 509.40673828125 313.0230712890625 C 511.0235290527344 310.6983642578125 511.9355163574219 307.1749572753906 512.1427612304688 302.4528503417969 C 512.3487548828125 297.7573547363281 511.74078369140625 294.20062255859375 510.3187561035156 291.7826232910156 C 508.896728515625 289.3646240234375 506.4440612792969 288.0791931152344 502.9607238769531 287.9263610839844 C 499.5107116699219 287.77496337890625 496.9684753417969 288.83453369140625 495.33404541015625 291.1050720214844 C 493.7065734863281 293.3692321777344 492.7890625 296.8656921386719 492.5815734863281 301.594482421875 M 525.3900146484375 303.0341491699219 C 525.0509643554688 310.7600402832031 522.7478637695312 316.7114562988281 518.4806518554688 320.888427734375 C 514.2134399414062 325.06536865234375 508.4466552734375 326.9944152832031 501.1802978515625 326.6755676269531 C 496.62469482421875 326.47564697265625 492.6490783691406 325.30023193359375 489.25341796875 323.1493225097656 C 485.8641662597656 321.0053405761719 483.31573486328125 318.0240783691406 481.608154296875 314.20556640625 C 479.9069519042969 310.39398193359375 479.1656494140625 305.99725341796875 479.38427734375 301.015380859375 C 479.7244567871094 293.2628479003906 482.01031494140625 287.3240051269531 486.2419128417969 283.1988830566406 C 490.4801330566406 279.07403564453125 496.26239013671875 277.17236328125 503.58868408203125 277.4938659667969 C 508.144287109375 277.6937561035156 512.1168823242188 278.86236572265625 515.5064697265625 280.99969482421875 C 518.9029541015625 283.130615234375 521.4522705078125 286.0918884277344 523.1543579101562 289.88348388671875 C 524.8634033203125 293.6687316894531 525.6085815429688 298.0522766113281 525.3900146484375 303.0341491699219 ZM 573.7655029296875 331.9670104980469 L 572.7393188476562 325.73651123046875 L 572.0639038085938 325.6578369140625 C 570.4312744140625 327.6893005371094 568.2808227539062 329.1536865234375 565.6124267578125 330.0510559082031 C 562.9366455078125 330.9542541503906 559.9830322265625 331.2176818847656 556.7515258789062 330.84136962890625 C 551.208984375 330.1958923339844 547.2033081054688 328.2259826660156 544.7344360351562 324.9316101074219 C 542.265625 321.6372375488281 541.35546875 317.2055358886719 542.0040283203125 311.6365051269531 L 545.5865478515625 280.8744201660156 L 558.4595336914062 282.3735656738281 L 555.2506713867188 309.9273681640625 C 554.8543090820312 313.3310241699219 555.1629028320312 315.9543151855469 556.176513671875 317.7972717285156 C 557.1835327148438 319.63946533203125 559.0114135742188 320.71478271484375 561.66015625 321.02325439453125 C 565.255859375 321.4420166015625 567.9953002929688 320.5395202636719 569.8785400390625 318.3157653808594 C 571.767578125 316.0993957519531 573.0364379882812 312.2066955566406 573.6849365234375 306.6376647949219 L 576.2691650390625 284.4476318359375 L 589.1322631835938 285.9456481933594 L 583.6387939453125 333.1168518066406 L 573.7655029296875 331.9670104980469 ZM 637.2233276367188 329.40362548828125 C 636.201904296875 334.1618957519531 633.7709350585938 337.4345703125 629.9302978515625 339.2216491699219 C 626.0845947265625 341.00079345703125 620.8667602539062 341.1830749511719 614.27685546875 339.7684631347656 C 610.9004516601562 339.0436706542969 608.0684204101562 338.1971130371094 605.7807006835938 337.2287292480469 C 603.49951171875 336.2617492675781 601.4144287109375 335.1118469238281 599.525390625 333.7790222167969 L 601.773193359375 323.30755615234375 C 603.888427734375 324.9207763671875 606.3419189453125 326.4190673828125 609.1337280273438 327.8025207519531 C 611.9190673828125 329.1845397949219 614.432861328125 330.1162109375 616.6751098632812 330.5975341796875 C 621.2769165039062 331.58538818359375 623.86328125 330.7496032714844 624.4341430664062 328.0901794433594 C 624.6482543945312 327.0928955078125 624.51611328125 326.2156066894531 624.0377197265625 325.4583435058594 C 623.564453125 324.708984375 622.662841796875 323.779052734375 621.3330078125 322.6685485839844 C 620.0096435546875 321.5594177246094 618.2130737304688 320.2089538574219 615.9432373046875 318.6170959472656 C 612.6917114257812 316.3576965332031 610.365478515625 314.4093933105469 608.9645385742188 312.772216796875 C 607.5621948242188 311.1416015625 606.6599731445312 309.4205627441406 606.2578735351562 307.6091613769531 C 605.8492431640625 305.7963562011719 605.903076171875 303.6873474121094 606.41943359375 301.2821350097656 C 607.3051147460938 297.1561279296875 609.5869750976562 294.30828857421875 613.2650146484375 292.7386169433594 C 616.950927734375 291.163818359375 621.7303466796875 291.0067443847656 627.603271484375 292.2674255371094 C 633.1958618164062 293.46795654296875 638.3735961914062 295.8544921875 643.1365356445312 299.4270324707031 L 637.3512573242188 307.7481384277344 C 635.244873046875 306.25274658203125 633.2466430664062 304.96807861328125 631.3566284179688 303.8941650390625 C 629.4717407226562 302.828125 627.4765625 302.06915283203125 625.3712158203125 301.6172180175781 C 621.6362915039062 300.8154602050781 619.5519409179688 301.4249267578125 619.1181640625 303.445556640625 C 618.874755859375 304.5797119140625 619.26708984375 305.69012451171875 620.2952270507812 306.77679443359375 C 621.322021484375 307.8699645996094 623.6941528320312 309.6678771972656 627.4116821289062 312.1705322265625 C 630.7275390625 314.4164733886719 633.0924072265625 316.35943603515625 634.50634765625 317.9993896484375 C 635.9217529296875 319.6328125 636.8518676757812 321.3666687011719 637.2968139648438 323.2008972167969 C 637.7417602539062 325.03515625 637.71728515625 327.10272216796875 637.2233276367188 329.40362548828125 ZM 682.8475952148438 318.9589538574219 C 680.3280639648438 317.8486328125 678.0054321289062 317.7794494628906 675.879638671875 318.75140380859375 C 673.7504272460938 319.71453857421875 671.9368896484375 321.61456298828125 670.4390258789062 324.451416015625 L 687.0752563476562 331.7827453613281 C 688.31689453125 328.8329772949219 688.5503540039062 326.2366638183594 687.7756958007812 323.9938049316406 C 687.0037841796875 321.744873046875 685.361083984375 320.06658935546875 682.8475952148438 318.9589538574219 M 668.37451171875 356.3145446777344 C 661.3771362304688 353.2309265136719 656.7619018554688 348.89129638671875 654.52880859375 343.29559326171875 C 652.2896118164062 337.6972351074219 652.7293090820312 331.3597106933594 655.847900390625 324.2830505371094 C 659.05517578125 317.0050964355469 663.3562622070312 312.1798095703125 668.7511596679688 309.8072509765625 C 674.1487426757812 307.4285583496094 680.0594482421875 307.6546936035156 686.4833374023438 310.485595703125 C 692.6266479492188 313.1928405761719 696.6378784179688 317.0514221191406 698.5171508789062 322.06134033203125 C 700.3930053710938 327.0624694824219 699.971923828125 332.6468811035156 697.25390625 338.8145446777344 L 694.7174072265625 344.5704345703125 L 666.6883544921875 332.2184753417969 C 665.3385620117188 335.6451110839844 665.1790161132812 338.7184143066406 666.2096557617188 341.4383544921875 C 667.2369384765625 344.14947509765625 669.4373779296875 346.2484130859375 672.8109741210938 347.735107421875 C 675.4281005859375 348.888427734375 678.0228881835938 349.7040710449219 680.5952758789062 350.1820068359375 C 683.1649169921875 350.666015625 685.98388671875 350.873779296875 689.0520629882812 350.80523681640625 L 685.0113525390625 359.974365234375 C 682.4801025390625 360.097412109375 679.9224853515625 359.8918762207031 677.3384399414062 359.3578186035156 C 674.760498046875 358.826416015625 671.7725219726562 357.81201171875 668.37451171875 356.3145446777344 Z" transform="matrix(0.9985948204994202, -0.05304515361785889, 0.05304515361785889, 0.9985948204994202, -18.114547729492188, -112.9011459350586)" style="fill: rgb(148, 173, 255); white-space: pre; color: rgb(51, 51, 51); stroke: rgb(7, 0, 1); stroke-width: 3;"/></svg>